<svg width="42" height="42" viewBox="0 0 42 42" xmlns="http://www.w3.org/2000/svg" xmlns:xlink="http://www.w3.org/1999/xlink"><title>Group 7</title><defs><path id="a" d="M13.828 32.828h6v6h-6z"/><path id="b" d="M32.828 13.828h6v6h-6z"/></defs><g transform="translate(1 1)" fill="none" fill-rule="evenodd"><path d="M1.5 28.5L28.587 1.413" stroke="#139FF0" stroke-width="1.5" stroke-linecap="square"/><circle stroke="#139FF0" stroke-width="1.5" fill="#FFF" cx="2" cy="28" r="2"/><circle stroke="#139FF0" stroke-width="1.5" fill="#FFF" cx="28" cy="2" r="2"/><path d="M34 14.95A13.43 13.43 0 0 0 24.47 11C17.03 11 11 17.03 11 24.47c0 3.722 1.51 7.09 3.947 9.528" stroke="#139FF0" stroke-width="1.5"/><g transform="rotate(45 16.828 35.828)"><use fill-opacity=".196" fill="#139FF0" xlink:href="#a"/><path stroke="#139FF0" stroke-width="1.5" d="M14.578 33.578h4.5v4.5h-4.5z"/></g><g transform="rotate(45 35.828 16.828)"><use fill-opacity=".196" fill="#139FF0" xlink:href="#b"/><path stroke="#139FF0" stroke-width="1.5" d="M33.578 14.578h4.5v4.5h-4.5z"/></g><circle stroke="#139FF0" stroke-width="1.5" fill="#FFF" cx="15" cy="15" r="2"/></g></svg>