<svg xmlns="http://www.w3.org/2000/svg" viewBox="0 0 212 326"><g opacity=".3"><path fill="#C1C1C1" d="M43.4 105.5l1.6.9-1-1.1m-1.3-.2l-.7.7h.1l.8-.6"/><path fill="#E8E8E8" d="M44 104.3v.6L212 133V19.6L47.3 101.7"/><path fill="#C1C1C1" d="M42.9 105.2l.1-.3-.3.2.2.1m0 0l-.2.4.3-.3"/><path fill="#C1C1C1" d="M42.7 105.6l.7-.1-.4-.2m.1-.6l-1.4-.2 1 .6.3-.2"/><path fill="#B2B2B2" d="M44 105.3l1 1.1 167 96.7V133L44 104.9"/><path fill="#C1C1C1" d="M43.4 104.8h-.1l-.3.5.4.2.6-.2m-1.1-.1l-.8.6.6-.2.2-.4m.9-1.1l-.4.6v.1l.6-.5v-.3m-.6.8l.6.1v-.6l-.6.5m.6-.5l3.3-2.6-2 1L44 104m-.9.5l-.5-.5-.9.5 1.4.2m1.4-1.6l-.6.3.1.5"/><path fill="#C1C1C1" d="M43.5 103.6l-.9.4.5.5"/><path fill="#C1C1C1" d="M43.3 104.6l.5-.5.2-.2-.1-.5-.4.2-.4.9m.3.2l-.1.1h.1"/><path fill="#969696" d="M47.7 294.1l-27-34.4L0 192.3V326h72.7"/><path fill="#EDEDED" d="M47.7 294.1l25 31.9h112.7L114 233.7"/><path fill="#C7C7C7" d="M45 106.4l76.3 82.6.2.1 1.2-6.6-1.2 6.6 90.5 53.1v-39.1"/><path fill="#E8E8E8" d="M114 233.7l3.7-3.4-3.7 3.4 98 15.8v-7.3l-90.5-53.1"/><path fill="#BFBFBF" d="M114 233.7l71.4 92.3H212v-76.5l-98-15.8"/><path fill="#E8E8E8" d="M42.7 105.1l-1-.6.9-.5L0 63v53l42-10.2"/><path fill="#C7C7C7" d="M121.3 189L0 178.3v14l20.7 67.4"/><path fill="#E8E8E8" d="M121.3 189L45 106.4l-1.6-.9-.7.1v.2-.2l-.6.2-.3.2.2-.2L0 116v62.3"/><path fill="#C7C7C7" d="M176.2 0H0v63l42.6 41 .9-.4.4-1.1v.9l.6-.3.8-.4 2-1L212 19.6V0"/><path fill="#C1C1C1" d="M44 104l1.3-1.3-.8.4-.5.8m-.1-1.4l-.4 1.1.4-.2m-1.2 2.4v-.2m1.3-.3v-.4l-.6-.1m-1.6 1.2l.3-.2H42"/><path fill="#EFEFEF" d="M114 233.7l7.5-44.6-.2-.1-100.6 70.7"/><path fill="#F7F7F7" d="M47.7 294.1l66.3-60.4-93.3 26"/><path fill="#C1C1C1" d="M43.3 104.8l.1-.1-.1-.1-.2.1m.2-.1l-.2-.1v.2m0 0l-.1.2.1-.2"/><path fill="#C1C1C1" d="M43.1 104.7l-.1.2-.1.3.4-.4m-.4.4l.1.1.3-.5-.4.4m1.1-1.3l-.2.2.2-.1m-.2.1l-.5.5.1.1m-.1.1h.1-.1"/></g></svg>